<?xml version="1.0" ?><svg height="512" id="svg2" version="1.1" width="512" xmlns="http://www.w3.org/2000/svg" xmlns:cc="http://creativecommons.org/ns#" xmlns:dc="http://purl.org/dc/elements/1.1/" xmlns:inkscape="http://www.inkscape.org/namespaces/inkscape" xmlns:rdf="http://www.w3.org/1999/02/22-rdf-syntax-ns#" xmlns:sodipodi="http://sodipodi.sourceforge.net/DTD/sodipodi-0.dtd" xmlns:svg="http://www.w3.org/2000/svg"><defs id="defs4"/><g id="layer1" transform="translate(0,-540.3622)"><g id="layer1-5" transform="translate(-573.14286,170.28574)"/><path d="m 275.75249,553.75275 a 16.0016,16.0016 0 0 0 -2.21875,0.21875 l -141.53125,0 a 16.0016,16.0016 0 0 0 -16,16 l 0,109 -25.000005,0 a 20.002,20.002 0 0 0 -17.5625,10 l -22.4375,0 a 20.002,20.002 0 0 0 -18.71875,12.28125 L 3.8462355,748.659 a 20.002,20.002 0 0 0 -2.34375,14.8125 l 59.9999995,260 a 20.002,20.002 0 0 0 19.5,15.5 l 399.968755,0 a 20.00703,20.00703 0 0 0 0.15625,0 20.00703,20.00703 0 0 0 1.1875,-0.062 20.009763,20.009763 0 0 0 0.9375,-0.062 20.00703,20.00703 0 0 0 1.65625,-0.2812 20.00703,20.00703 0 0 0 0.0625,0 20.00703,20.00703 0 0 0 1.875,-0.4688 20.00703,20.00703 0 0 0 0.0625,-0.031 20.009763,20.009763 0 0 0 0.0312,0 20.00703,20.00703 0 0 0 1.84375,-0.6875 20.00703,20.00703 0 0 0 0.84375,-0.375 20.002,20.002 0 0 0 0.125,-0.062 20.002,20.002 0 0 0 0.8125,-0.375 20.009763,20.009763 0 0 0 0.0312,-0.031 20.002,20.002 0 0 0 0.46875,-0.2812 20.00703,20.00703 0 0 0 0.15625,-0.094 20.009763,20.009763 0 0 0 1.53125,-1 20.00703,20.00703 0 0 0 0.125,-0.094 20.009763,20.009763 0 0 0 0.0937,-0.062 20.009763,20.009763 0 0 0 0.5,-0.4375 20.00703,20.00703 0 0 0 1.03125,-0.8438 20.009763,20.009763 0 0 0 0.125,-0.125 20.009763,20.009763 0 0 0 0.6875,-0.6562 20.002,20.002 0 0 0 0.40625,-0.4375 20.00703,20.00703 0 0 0 0.90625,-1.0625 20.002,20.002 0 0 0 0.125,-0.1563 20.00703,20.00703 0 0 0 0.6875,-0.9375 20.002,20.002 0 0 0 0.53125,-0.8125 20.002,20.002 0 0 0 0.15625,-0.2187 20.00703,20.00703 0 0 0 0.25,-0.4688 20.002,20.002 0 0 0 0.4375,-0.75 20.009763,20.009763 0 0 0 0.0312,-0.031 20.002,20.002 0 0 0 0.21875,-0.5 20.002,20.002 0 0 0 0.6875,-1.625 20.002,20.002 0 0 0 0.0937,-0.2188 20.00703,20.00703 0 0 0 0.0937,-0.3437 20.002,20.002 0 0 0 0.1875,-0.5313 20.002,20.002 0 0 0 0.15625,-0.4687 20.009763,20.009763 0 0 0 0,-0.031 20.002,20.002 0 0 0 0.125,-0.5625 20.002,20.002 0 0 0 0.3125,-1.375 20.009763,20.009763 0 0 0 0.0312,-0.2812 20.00703,20.00703 0 0 0 0.125,-1.0313 20.009763,20.009763 0 0 0 0.0937,-0.6875 20.009763,20.009763 0 0 0 0,-0.375 20.009763,20.009763 0 0 0 0.0312,-0.1875 20.00703,20.00703 0 0 0 0,-0.25 l 10,-320 a 20.002,20.002 0 0 0 -20,-20.625 l -95,0 0,-2.40625 a 16.0016,16.0016 0 0 0 -6.03125,-15.28125 l -101.375,-101.375 a 16.0016,16.0016 0 0 0 -12.84375,-6.15625 z m -127.75,32.21875 112,0 0,85.4375 a 16.0016,16.0016 0 0 0 4.59375,14 16.0016,16.0016 0 0 0 0.125,0.125 16.0016,16.0016 0 0 0 0.21875,0.21875 16.0016,16.0016 0 0 0 13.6875,4.21875 l 85.375,0 0,49 -131.6875,0 -24.15625,-40.28125 a 20.002,20.002 0 0 0 -17.15625,-9.71875 l -43,0 0,-103 z m 144,22.625 49.375,49.375 -49.375,0 0,-49.375 z m 104,110.375 74.34375,0 -5.59375,179.125 -44.625,-145 a 20.002,20.002 0 0 0 0,-0.0312 20.002,20.002 0 0 0 -0.6875,-1.84375 20.002,20.002 0 0 0 0,-0.0312 20.002,20.002 0 0 0 -0.875,-1.78125 20.002,20.002 0 0 0 0,-0.0312 20.002,20.002 0 0 0 -1.03125,-1.65625 20.002,20.002 0 0 0 0,-0.0312 20.002,20.002 0 0 0 -1.21875,-1.5625 20.002,20.002 0 0 0 0,-0.0312 20.002,20.002 0 0 0 -1.34375,-1.4375 20.002,20.002 0 0 0 -0.0312,-0.0312 20.002,20.002 0 0 0 -1.46875,-1.3125 20.002,20.002 0 0 0 -0.0312,0 20.002,20.002 0 0 0 -1.59375,-1.15625 20.002,20.002 0 0 0 -0.0312,0 20.002,20.002 0 0 0 -1.6875,-1 20.002,20.002 0 0 0 -0.0312,0 20.002,20.002 0 0 0 -1.8125,-0.8125 20.002,20.002 0 0 0 -1.875,-0.625 20.002,20.002 0 0 0 -3.71875,-0.65625 20.002,20.002 0 0 0 -0.21875,-0.0312 20.002,20.002 0 0 0 -0.0312,0 20.002,20.002 0 0 0 -1.4375,-0.0625 l -5,0 0,-20 z m -333.687505,10 53.687505,0 63.6875,0 24.15625,40.28125 a 20.002,20.002 0 0 0 17.15625,9.71875 l 165.21875,0 9.78125,31.78125 13.375,43.53125 44.53125,144.6875 -356.968755,0 -54.625,-236.65625 20,-33.34375 z" id="path3833" style="font-size:medium;font-style:normal;font-variant:normal;font-weight:normal;font-stretch:normal;text-indent:0;text-align:start;text-decoration:none;line-height:normal;letter-spacing:normal;word-spacing:normal;text-transform:none;direction:ltr;block-progression:tb;writing-mode:lr-tb;text-anchor:start;baseline-shift:baseline;color:#000000;fill:#222222;fill-opacity:1;fill-rule:nonzero;stroke:none;stroke-width:40;marker:none;visibility:visible;display:inline;overflow:visible;enable-background:accumulate;font-family:Sans;-inkscape-font-specification:Sans"/><g id="layer1-5-4" transform="matrix(0.8,0,0,0.8,-408.20814,246.38775)"/></g></svg>